<svg width="12" height="12" viewBox="0 0 12 12" fill="none" xmlns="http://www.w3.org/2000/svg">
<path d="M0.368526 0.010354C0.319655 0.0178728 0.225672 0.0855408 0.154245 0.156968C0.0339462 0.273507 0.0226682 0.307341 0.0226682 0.502826V0.713348L2.66172 3.35616L5.30452 5.99896L2.66548 8.63801C0.364767 10.9462 0.0264275 11.2996 0.00763089 11.4162C-0.0525184 11.7583 0.251987 12.0515 0.601605 11.9876C0.695588 11.9725 1.25573 11.4312 3.36095 9.32973L6 6.69444L8.64281 9.32973C10.7443 11.4312 11.3044 11.9725 11.3984 11.9876C11.748 12.0515 12.0525 11.7583 11.9924 11.4162C11.9736 11.2996 11.6352 10.9462 9.33452 8.63801L6.69548 5.99896L9.33828 3.35616L11.9773 0.713348V0.502826C11.9773 0.307341 11.9661 0.273507 11.8495 0.160728C11.7142 0.0253916 11.5751 -0.0234795 11.3946 0.010354C11.3082 0.0253916 10.6954 0.615606 8.64281 2.6682L6 5.30349L3.35719 2.66068C1.90609 1.20958 0.691829 0.0216322 0.661754 0.0216322C0.631679 0.0216322 0.57153 0.0141134 0.530178 0.00659466C0.488825 -0.00092411 0.417398 -0.00092411 0.368526 0.010354Z" fill="#151515"/>
</svg>
