<svg width="199" height="42" viewBox="0 0 199 42" fill="none" xmlns="http://www.w3.org/2000/svg">
<path d="M11.56 32C10.2267 32 9.02667 31.6667 7.96 31C6.89333 30.3067 6.05333 29.3733 5.44 28.2C4.82667 27.0267 4.52 25.7067 4.52 24.24V5.16C4.52 4.57333 4.70667 4.09333 5.08 3.72C5.45333 3.34667 5.93333 3.16 6.52 3.16C7.10667 3.16 7.58667 3.34667 7.96 3.72C8.33333 4.09333 8.52 4.57333 8.52 5.16V24.24C8.52 25.3067 8.81333 26.2 9.4 26.92C9.98667 27.64 10.7067 28 11.56 28H12.92C13.4 28 13.8 28.1867 14.12 28.56C14.4667 28.9333 14.64 29.4133 14.64 30C14.64 30.5867 14.4133 31.0667 13.96 31.44C13.5333 31.8133 12.9733 32 12.28 32H11.56ZM2.68 14.36C2.12 14.36 1.66667 14.2 1.32 13.88C0.973333 13.56 0.8 13.16 0.8 12.68C0.8 12.1467 0.973333 11.72 1.32 11.4C1.66667 11.08 2.12 10.92 2.68 10.92H11.92C12.48 10.92 12.9333 11.08 13.28 11.4C13.6267 11.72 13.8 12.1467 13.8 12.68C13.8 13.16 13.6267 13.56 13.28 13.88C12.9333 14.2 12.48 14.36 11.92 14.36H2.68ZM21.6147 18.32C21.6147 16.72 22.0014 15.2933 22.7747 14.04C23.5747 12.76 24.6414 11.7467 25.9747 11C27.308 10.2533 28.7747 9.88 30.3747 9.88C31.9747 9.88 33.1614 10.1467 33.9347 10.68C34.7347 11.1867 35.0414 11.8 34.8547 12.52C34.7747 12.8933 34.6147 13.1867 34.3747 13.4C34.1614 13.5867 33.908 13.7067 33.6147 13.76C33.3214 13.8133 33.0014 13.8 32.6547 13.72C30.948 13.3733 29.4147 13.3467 28.0547 13.64C26.6947 13.9333 25.6147 14.48 24.8147 15.28C24.0414 16.08 23.6547 17.0933 23.6547 18.32H21.6147ZM21.6547 32C21.0147 32 20.5214 31.84 20.1747 31.52C19.828 31.1733 19.6547 30.6667 19.6547 30V12.12C19.6547 11.48 19.828 10.9867 20.1747 10.64C20.5214 10.2933 21.0147 10.12 21.6547 10.12C22.3214 10.12 22.8147 10.2933 23.1347 10.64C23.4814 10.96 23.6547 11.4533 23.6547 12.12V30C23.6547 30.64 23.4814 31.1333 23.1347 31.48C22.8147 31.8267 22.3214 32 21.6547 32ZM47.7863 32.16C45.5729 32.16 43.5996 31.6933 41.8663 30.76C40.1596 29.8 38.8129 28.4933 37.8263 26.84C36.8663 25.16 36.3863 23.24 36.3863 21.08C36.3863 18.8933 36.8396 16.9733 37.7463 15.32C38.6796 13.64 39.9596 12.3333 41.5863 11.4C43.2129 10.44 45.0796 9.96 47.1863 9.96C49.2663 9.96 51.0529 10.4267 52.5463 11.36C54.0396 12.2667 55.1729 13.5333 55.9462 15.16C56.7463 16.76 57.1463 18.6133 57.1463 20.72C57.1463 21.2267 56.9729 21.6533 56.6263 22C56.2796 22.32 55.8396 22.48 55.3063 22.48H39.1862V19.28H55.1863L53.5463 20.4C53.5196 19.0667 53.2529 17.88 52.7463 16.84C52.2396 15.7733 51.5196 14.9333 50.5863 14.32C49.6529 13.7067 48.5196 13.4 47.1863 13.4C45.6663 13.4 44.3596 13.7333 43.2663 14.4C42.1996 15.0667 41.3863 15.9867 40.8263 17.16C40.2663 18.3067 39.9863 19.6133 39.9863 21.08C39.9863 22.5467 40.3196 23.8533 40.9863 25C41.6529 26.1467 42.5729 27.0533 43.7463 27.72C44.9196 28.3867 46.2663 28.72 47.7863 28.72C48.6129 28.72 49.4529 28.5733 50.3063 28.28C51.1863 27.96 51.8929 27.6 52.4263 27.2C52.8263 26.9067 53.2529 26.76 53.7063 26.76C54.1863 26.7333 54.5996 26.8667 54.9463 27.16C55.3996 27.56 55.6396 28 55.6663 28.48C55.6929 28.96 55.4796 29.3733 55.0262 29.72C54.1196 30.44 52.9863 31.0267 51.6263 31.48C50.2929 31.9333 49.0129 32.16 47.7863 32.16ZM71.8488 32.16C69.6354 32.16 67.6621 31.6933 65.9288 30.76C64.2221 29.8 62.8754 28.4933 61.8888 26.84C60.9288 25.16 60.4488 23.24 60.4488 21.08C60.4488 18.8933 60.9021 16.9733 61.8088 15.32C62.7421 13.64 64.0221 12.3333 65.6488 11.4C67.2754 10.44 69.1421 9.96 71.2488 9.96C73.3288 9.96 75.1154 10.4267 76.6088 11.36C78.1021 12.2667 79.2354 13.5333 80.0087 15.16C80.8088 16.76 81.2088 18.6133 81.2088 20.72C81.2088 21.2267 81.0354 21.6533 80.6888 22C80.3421 22.32 79.9021 22.48 79.3688 22.48H63.2487V19.28H79.2488L77.6088 20.4C77.5821 19.0667 77.3154 17.88 76.8088 16.84C76.3021 15.7733 75.5821 14.9333 74.6488 14.32C73.7154 13.7067 72.5821 13.4 71.2488 13.4C69.7288 13.4 68.4221 13.7333 67.3288 14.4C66.2621 15.0667 65.4488 15.9867 64.8888 17.16C64.3288 18.3067 64.0488 19.6133 64.0488 21.08C64.0488 22.5467 64.3821 23.8533 65.0488 25C65.7154 26.1467 66.6354 27.0533 67.8088 27.72C68.9821 28.3867 70.3288 28.72 71.8488 28.72C72.6754 28.72 73.5154 28.5733 74.3688 28.28C75.2488 27.96 75.9554 27.6 76.4888 27.2C76.8888 26.9067 77.3154 26.76 77.7688 26.76C78.2488 26.7333 78.6621 26.8667 79.0088 27.16C79.4621 27.56 79.7021 28 79.7288 28.48C79.7554 28.96 79.5421 29.3733 79.0887 29.72C78.1821 30.44 77.0488 31.0267 75.6888 31.48C74.3554 31.9333 73.0754 32.16 71.8488 32.16ZM88.4525 41.36C87.8658 41.36 87.3725 41.16 86.9725 40.76C86.5992 40.3867 86.4125 39.9067 86.4125 39.32V21.08C86.4392 18.9733 86.9325 17.08 87.8925 15.4C88.8525 13.72 90.1592 12.4 91.8125 11.44C93.4658 10.4533 95.3325 9.96 97.4125 9.96C99.5192 9.96 101.399 10.4533 103.053 11.44C104.706 12.4 106.013 13.72 106.973 15.4C107.959 17.08 108.453 18.9733 108.453 21.08C108.453 23.1867 107.999 25.08 107.093 26.76C106.213 28.4133 104.999 29.7333 103.453 30.72C101.906 31.68 100.159 32.16 98.2125 32.16C96.6392 32.16 95.1858 31.84 93.8525 31.2C92.5458 30.5333 91.4258 29.64 90.4925 28.52V39.32C90.4925 39.9067 90.3058 40.3867 89.9325 40.76C89.5592 41.16 89.0658 41.36 88.4525 41.36ZM97.4125 28.56C98.7725 28.56 99.9858 28.24 101.053 27.6C102.119 26.9333 102.959 26.04 103.573 24.92C104.213 23.7733 104.533 22.4933 104.533 21.08C104.533 19.64 104.213 18.36 103.573 17.24C102.959 16.0933 102.119 15.2 101.053 14.56C99.9858 13.8933 98.7725 13.56 97.4125 13.56C96.0792 13.56 94.8658 13.8933 93.7725 14.56C92.7058 15.2 91.8658 16.0933 91.2525 17.24C90.6392 18.36 90.3325 19.64 90.3325 21.08C90.3325 22.4933 90.6392 23.7733 91.2525 24.92C91.8658 26.04 92.7058 26.9333 93.7725 27.6C94.8658 28.24 96.0792 28.56 97.4125 28.56ZM119.738 32C118.564 32 117.524 31.68 116.618 31.04C115.711 30.4 115.004 29.5333 114.498 28.44C113.991 27.32 113.738 26.04 113.738 24.6V2.76C113.738 2.17333 113.924 1.69333 114.298 1.32C114.671 0.946666 115.151 0.759999 115.738 0.759999C116.324 0.759999 116.804 0.946666 117.178 1.32C117.551 1.69333 117.738 2.17333 117.738 2.76V24.6C117.738 25.5867 117.924 26.4 118.298 27.04C118.671 27.68 119.151 28 119.738 28H120.738C121.271 28 121.698 28.1867 122.018 28.56C122.364 28.9333 122.538 29.4133 122.538 30C122.538 30.5867 122.284 31.0667 121.778 31.44C121.271 31.8133 120.618 32 119.818 32H119.738ZM135.599 32.16C133.385 32.16 131.412 31.6933 129.679 30.76C127.972 29.8 126.625 28.4933 125.639 26.84C124.679 25.16 124.199 23.24 124.199 21.08C124.199 18.8933 124.652 16.9733 125.559 15.32C126.492 13.64 127.772 12.3333 129.399 11.4C131.025 10.44 132.892 9.96 134.999 9.96C137.079 9.96 138.865 10.4267 140.359 11.36C141.852 12.2667 142.985 13.5333 143.759 15.16C144.559 16.76 144.959 18.6133 144.959 20.72C144.959 21.2267 144.785 21.6533 144.439 22C144.092 22.32 143.652 22.48 143.119 22.48H126.999V19.28H142.999L141.359 20.4C141.332 19.0667 141.065 17.88 140.559 16.84C140.052 15.7733 139.332 14.9333 138.399 14.32C137.465 13.7067 136.332 13.4 134.999 13.4C133.479 13.4 132.172 13.7333 131.079 14.4C130.012 15.0667 129.199 15.9867 128.639 17.16C128.079 18.3067 127.799 19.6133 127.799 21.08C127.799 22.5467 128.132 23.8533 128.799 25C129.465 26.1467 130.385 27.0533 131.559 27.72C132.732 28.3867 134.079 28.72 135.599 28.72C136.425 28.72 137.265 28.5733 138.119 28.28C138.999 27.96 139.705 27.6 140.239 27.2C140.639 26.9067 141.065 26.76 141.519 26.76C141.999 26.7333 142.412 26.8667 142.759 27.16C143.212 27.56 143.452 28 143.479 28.48C143.505 28.96 143.292 29.3733 142.839 29.72C141.932 30.44 140.799 31.0267 139.439 31.48C138.105 31.9333 136.825 32.16 135.599 32.16ZM151.323 32.64C150.576 32.64 149.923 32.3733 149.363 31.84C148.829 31.28 148.563 30.6267 148.563 29.88C148.563 29.1067 148.829 28.4533 149.363 27.92C149.923 27.36 150.576 27.08 151.323 27.08C152.096 27.08 152.749 27.36 153.283 27.92C153.816 28.4533 154.083 29.1067 154.083 29.88C154.083 30.6267 153.816 31.28 153.283 31.84C152.749 32.3733 152.096 32.64 151.323 32.64ZM163.534 24L161.054 21.28L173.334 10.32C173.734 9.94666 174.174 9.77333 174.654 9.8C175.16 9.82667 175.587 10.04 175.934 10.44C176.307 10.84 176.48 11.28 176.454 11.76C176.427 12.24 176.214 12.6667 175.814 13.04L163.534 24ZM161.654 32C161.067 32 160.587 31.8267 160.214 31.48C159.867 31.1067 159.694 30.6267 159.694 30.04V2.72C159.694 2.13333 159.867 1.66667 160.214 1.32C160.587 0.946666 161.067 0.759999 161.654 0.759999C162.24 0.759999 162.707 0.946666 163.054 1.32C163.427 1.66667 163.614 2.13333 163.614 2.72V30.04C163.614 30.6267 163.427 31.1067 163.054 31.48C162.707 31.8267 162.24 32 161.654 32ZM175.934 31.8C175.507 32.1467 175.027 32.2933 174.494 32.24C173.987 32.2133 173.56 31.9867 173.214 31.56L165.094 21.52L167.894 18.88L176.214 29.12C176.56 29.5467 176.707 30.0133 176.654 30.52C176.627 31 176.387 31.4267 175.934 31.8ZM184.547 31.24L181.827 28.84L195.427 10.88L198.107 13.28L184.547 31.24ZM183.347 32C182.094 32 181.467 31.3733 181.467 30.12C181.467 28.8667 182.094 28.24 183.347 28.24H196.987C198.241 28.24 198.867 28.8667 198.867 30.12C198.867 31.3733 198.241 32 196.987 32H183.347ZM182.947 13.88C181.694 13.88 181.067 13.2533 181.067 12C181.067 10.7467 181.694 10.12 182.947 10.12H196.587C197.841 10.12 198.467 10.7467 198.467 12C198.467 13.2533 197.841 13.88 196.587 13.88H182.947Z" fill="black"/>
</svg>
